# File created by Blade
# Date/Time:  Wed Jan 21 15:15:22 2015
# Frame Rate: 120.000 fps
#------------------------------------------------------
:FULLY-SPECIFIED
:DEGREES
936
root 22.032467 38.970659 -19.036923 175.984288 -40.541206 -99.337009
Spine -31.756720 -5.048596 -4.843986
Head -21.353367 32.249858 39.631260
LeftShoulder -11.143636 -25.557855 14.445796
LeftArm -11.463970 7.900782 -51.554892
LeftForeArm -4.363903 -0.000000 3.097516
LeftHand -0.373928 0.000000 3.855921
LeftHandThumb1 -26.253704 0.000000 33.147579
RightShoulder -26.295000 -19.470305 13.110024
RightArm -15.548532 25.792249 53.830810
RightForeArm -42.530060 -0.000000 7.670643
RightHand -3.968699 -0.000000 23.315585
RightHandThumb1 -24.326973 -0.000000 -32.862282
LeftUpLeg -85.418999 44.863304 -10.526180
LeftLeg -5.840860 -0.000000 0.000000
LeftFoot -13.694873 16.235138 -18.537713
LeftToeBase 41.961995 -0.000000 -0.000000
RightUpLeg 0.289760 -0.449945 -17.513158
RightLeg 132.921890 -0.000000 -0.000000
RightFoot 28.066185 -32.576208 -11.221616
RightToeBase 23.082242 -0.000000 -0.000000
937
root 22.020812 38.966767 -19.016243 175.642228 -40.683299 -99.712083
Spine -31.384323 -4.857955 -4.963313
Head -21.326713 32.148314 39.504209
LeftShoulder -11.115657 -25.550311 14.316214
LeftArm -11.848355 7.805844 -52.067665
LeftForeArm -4.281670 -0.000000 2.920806
LeftHand -0.466101 -0.000000 3.477938
LeftHandThumb1 -26.253704 0.000000 33.147579
RightShoulder -26.202183 -19.363856 13.112474
RightArm -15.631394 25.952159 54.214102
RightForeArm -42.289248 -0.000000 7.638808
RightHand -3.950668 -0.000000 23.180126
RightHandThumb1 -24.326973 -0.000000 -32.862282
LeftUpLeg -84.528597 44.817375 -10.200692
LeftLeg -5.788362 -0.000000 0.000000
LeftFoot -13.722636 16.242943 -18.507487
LeftToeBase 42.039712 -0.000000 -0.000000
RightUpLeg 0.273309 -0.709985 -17.443794
RightLeg 133.305499 -0.000000 -0.000000
RightFoot 28.047913 -32.408880 -11.359739
RightToeBase 23.678993 -0.000000 -0.000000
938
root 22.006637 38.961952 -18.992470 175.340220 -40.786676 -100.156437
Spine -31.027677 -4.667898 -5.105375
Head -21.223615 32.138652 39.464900
LeftShoulder -11.124414 -25.615173 14.237705
LeftArm -12.315724 7.692295 -52.591340
LeftForeArm -4.192799 -0.000000 2.740009
LeftHand -0.711230 -0.000000 3.288148
LeftHandThumb1 -26.253704 0.000000 33.147579
RightShoulder -26.148571 -19.411812 13.190354
RightArm -15.477381 26.164259 54.688554
RightForeArm -42.027065 -0.000000 7.570244
RightHand -4.099466 -0.000000 23.146426
RightHandThumb1 -24.326973 -0.000000 -32.862282
LeftUpLeg -83.585224 44.814686 -9.892518
LeftLeg -5.777020 -0.000000 0.000000
LeftFoot -13.809612 16.261962 -18.545023
LeftToeBase 42.713102 -0.000000 -0.000000
RightUpLeg 0.206927 -0.931175 -17.403309
RightLeg 133.716570 -0.000000 -0.000000
RightFoot 28.001607 -32.364970 -11.283310
RightToeBase 23.716211 -0.000000 -0.000000
939
root 21.986829 38.953988 -18.967800 175.100258 -40.941456 -100.673470
Spine -30.727073 -4.501940 -5.318030
Head -21.062692 31.967943 39.483264
LeftShoulder -11.092540 -25.552293 14.130758
LeftArm -12.690991 7.594952 -53.117419
LeftForeArm -4.262922 -0.000000 2.497605
LeftHand -0.625868 -0.000000 2.927124
LeftHandThumb1 -26.253704 0.000000 33.147579
RightShoulder -26.118495 -19.401839 13.312612
RightArm -15.426762 26.352345 55.063956
RightForeArm -41.733037 -0.000000 7.484373
RightHand -4.105947 -0.000000 22.991976
RightHandThumb1 -24.326973 -0.000000 -32.862282
LeftUpLeg -82.659126 44.766954 -9.702763
LeftLeg -5.791880 -0.000000 0.000000
LeftFoot -13.899776 16.227386 -18.642688
LeftToeBase 42.410460 -0.000000 -0.000000
RightUpLeg 0.140769 -1.201250 -17.399636
RightLeg 134.088781 -0.000000 -0.000000
RightFoot 28.144643 -32.282985 -11.384194
RightToeBase 23.947519 -0.000000 -0.000000
